<svg width="20" height="20" viewBox="0 0 20 20" fill="none" xmlns="http://www.w3.org/2000/svg">
<path d="M6.66675 10.0001C6.20651 10.0001 5.83341 10.3732 5.83341 10.8334C5.83341 11.2937 6.20651 11.6667 6.66675 11.6667H13.3334C13.7937 11.6667 14.1667 11.2937 14.1667 10.8334C14.1667 10.3732 13.7937 10.0001 13.3334 10.0001H6.66675Z" fill="#7D8488"/>
<path d="M5.83341 14.1667C5.83341 13.7065 6.20651 13.3334 6.66675 13.3334H10.0001C10.4603 13.3334 10.8334 13.7065 10.8334 14.1667C10.8334 14.627 10.4603 15.0001 10.0001 15.0001H6.66675C6.20651 15.0001 5.83341 14.627 5.83341 14.1667Z" fill="#7D8488"/>
<path fill-rule="evenodd" clip-rule="evenodd" d="M5.83341 1.66675C6.29365 1.66675 6.66675 2.03984 6.66675 2.50008V3.33341H13.3334V2.50008C13.3334 2.03984 13.7065 1.66675 14.1667 1.66675C14.627 1.66675 15.0001 2.03984 15.0001 2.50008V3.41676C16.9019 3.80282 18.3334 5.48428 18.3334 7.50008V14.1667C18.3334 16.4679 16.4679 18.3334 14.1667 18.3334H5.83341C3.53223 18.3334 1.66675 16.4679 1.66675 14.1667V7.50008C1.66675 5.48428 3.09821 3.80282 5.00008 3.41676V2.50008C5.00008 2.03984 5.37318 1.66675 5.83341 1.66675ZM16.6667 8.33341H3.33341V14.1667C3.33341 15.5475 4.4527 16.6667 5.83341 16.6667H14.1667C15.5475 16.6667 16.6667 15.5475 16.6667 14.1667V8.33341Z" fill="#7D8488"/>
</svg>
