<svg width="16" height="12" viewBox="0 0 16 12" fill="none" xmlns="http://www.w3.org/2000/svg">
<path d="M8.70778 8.44138C8.70778 4.92414 10.9812 1.32414 12.3968 0H16C14.7131 1.44827 13.126 4.17931 12.6971 6.24828C13.8981 6.49655 15.1421 7.36552 15.1421 9.02069C15.1421 10.7172 13.8123 12 11.9678 12C10.1662 12 8.70778 10.6759 8.70778 8.44138ZM0 8.44138C0 4.92414 2.27346 1.32414 3.68901 0H7.29222C6.00536 1.44827 4.41823 4.17931 3.98928 6.24828C5.19035 6.49655 6.43432 7.36552 6.43432 9.02069C6.43432 10.7172 5.10456 12 3.26005 12C1.45844 12 0 10.6759 0 8.44138Z" fill="#567D4A"/>
</svg>
